<svg width="155" height="287" viewBox="0 0 155 287" fill="none" xmlns="http://www.w3.org/2000/svg">
<path d="M21.6537 115.062C17.6422 134.681 -5.97671 152.551 1.7305 171.062C10.505 192.136 41.3019 191.957 59.3554 205.613C70.8902 214.337 80.4789 225.205 88.9458 237.029C100.064 252.555 98.9872 281.516 117.204 286.4C135.999 291.439 148.425 260.682 167.653 258.13C185.144 255.81 202.066 280.253 218.178 273.003C234.162 265.81 229.59 239.018 240.675 225.272C250.738 212.795 267.712 208.667 279.111 197.447C293.219 183.562 310.687 170.579 315.862 151.27C320.918 132.404 315.947 111.023 306.924 93.6716C297.998 76.5055 280.448 66.2163 265.413 54.2556C252.045 43.6209 238.083 34.2353 222.806 26.7535C207.888 19.4478 192.245 14.7756 176.228 10.5802C158.88 6.0358 141.653 -0.665857 123.836 0.828722C105.328 2.38123 88.0476 10.3467 71.7535 19.3438C54.5569 28.8393 34.6316 37.5821 25.4275 55.167C16.1281 72.9339 25.6894 95.3243 21.6537 115.062Z" fill="url(#paint0_linear_149_167)"/>
<defs>
<linearGradient id="paint0_linear_149_167" x1="-1.96239" y1="234.426" x2="316.023" y2="115.781" gradientUnits="userSpaceOnUse">
<stop offset="0.255208" stop-color="#6CD32D"/>
<stop offset="1" stop-color="#8FF908" stop-opacity="0"/>
</linearGradient>
</defs>
</svg>
