<svg width="184" height="261" viewBox="0 0 184 261" fill="none" xmlns="http://www.w3.org/2000/svg">
<path fill-rule="evenodd" clip-rule="evenodd" d="M292.232 110.652C298.519 127.742 276.124 143.019 271.625 160.653C267.098 178.394 274.921 199.075 265.653 214.822C256.481 230.407 237.854 237.552 221.696 245.486C206.386 253.004 190.216 259.548 173.19 260.228C156.798 260.882 141.292 254.127 125.585 249.323C111.083 244.888 96.9432 240.036 83.5782 232.823C69.8912 225.437 57.4901 216.376 45.6852 206.206C32.4085 194.767 16.7576 184.746 9.29731 168.827C1.75673 152.737 -1.90207 133.151 3.52318 116.24C9.07554 98.9339 25.6281 87.8471 39.1396 75.8095C50.0567 66.0834 65.7858 63.0074 75.5309 52.0881C86.2666 40.0588 83.2005 15.5815 98.1508 9.68762C113.22 3.74668 127.702 26.5792 143.829 25.1627C161.557 23.6056 174.235 -3.79831 191.248 1.5108C207.738 6.65674 205.536 32.878 215.073 47.3959C222.337 58.4522 230.668 68.6849 240.873 77.0509C256.845 90.1448 285.075 91.1945 292.232 110.652Z" fill="url(#paint0_linear_149_159)"/>
<defs>
<linearGradient id="paint0_linear_149_159" x1="298.275" y1="53.3334" x2="2.29677" y2="149.678" gradientUnits="userSpaceOnUse">
<stop offset="0.255208" stop-color="#6CD32D"/>
<stop offset="1" stop-color="#8FF908" stop-opacity="0"/>
</linearGradient>
</defs>
</svg>
