<svg width="191" height="338" viewBox="0 0 191 338" fill="none" xmlns="http://www.w3.org/2000/svg">
<path fill-rule="evenodd" clip-rule="evenodd" d="M347.213 221.079C344.796 244.078 311.513 249.457 296.815 267.236C282.027 285.122 279.342 313.071 260.384 326.102C241.621 338.999 216.997 337.098 194.681 337.439C173.537 337.763 151.973 336.504 132.684 328.058C114.114 319.927 100.603 303.781 85.7947 289.763C72.1233 276.821 59.0842 263.597 48.2035 248.087C37.0606 232.203 28.2677 215.096 20.7474 197.04C12.2895 176.733 0.414452 156.764 0.882851 134.472C1.35631 111.94 8.06535 87.503 23.3946 71.0559C39.0828 54.2234 63.5707 50.4817 85.2029 44.0023C102.681 38.7671 121.848 43.7631 138.681 36.5249C157.225 28.551 167.283 -1.17191 187.134 0.171556C207.143 1.52574 210.673 35.5483 229.368 42.6623C249.92 50.483 279.079 25.9353 295.059 41.2397C310.548 56.0737 293.678 84.942 296.288 106.753C298.275 123.364 301.902 139.609 308.638 154.73C319.179 178.395 349.965 194.894 347.213 221.079Z" fill="url(#paint0_linear_149_158)"/>
<defs>
<linearGradient id="paint0_linear_149_158" x1="385.456" y1="158.641" x2="4.26386" y2="104.338" gradientUnits="userSpaceOnUse">
<stop offset="0.255208" stop-color="#6CD32D"/>
<stop offset="1" stop-color="#8FF908" stop-opacity="0"/>
</linearGradient>
</defs>
</svg>
